<svg xmlns="http://www.w3.org/2000/svg" width="900" height="310" viewBox="0 0 900 310" role="img" aria-labelledby="title desc">
  <title id="title">Qinglong Ge — Scientific AI and Agent Systems</title>
  <desc id="desc">Profile banner combining controllable generation, atmospheric AI, and knowledge graph motifs.</desc>
  <defs>
    <linearGradient id="bg" x1="0" y1="0" x2="1" y2="1"><stop stop-color="#070B16"/><stop offset=".46" stop-color="#11172C"/><stop offset="1" stop-color="#0A2A22"/></linearGradient>
    <radialGradient id="blueGlow"><stop stop-color="#6FA8FF" stop-opacity=".28"/><stop offset="1" stop-color="#6FA8FF" stop-opacity="0"/></radialGradient>
    <radialGradient id="greenGlow"><stop stop-color="#72FFB0" stop-opacity=".23"/><stop offset="1" stop-color="#72FFB0" stop-opacity="0"/></radialGradient>
    <pattern id="grid" width="28" height="28" patternUnits="userSpaceOnUse"><path d="M28 0H0V28" fill="none" stroke="#DDE7FF" stroke-opacity=".055"/></pattern>
    <linearGradient id="rule" x1="0" y1="0" x2="1" y2="0"><stop stop-color="#FF747D"/><stop offset=".5" stop-color="#7DA8FF"/><stop offset="1" stop-color="#72FFB0"/></linearGradient>
  </defs>
  <rect width="900" height="310" rx="26" fill="url(#bg)"/><rect width="900" height="310" rx="26" fill="url(#grid)"/>
  <circle cx="178" cy="154" r="170" fill="url(#blueGlow)"/><circle cx="746" cy="150" r="180" fill="url(#greenGlow)"/>
  <g opacity=".55" fill="none" stroke-linecap="round">
    <rect x="48" y="67" width="83" height="160" rx="8" stroke="#FF747D" stroke-width="2"/><rect x="91" y="151" width="148" height="91" rx="8" stroke="#FFB65A" stroke-width="2"/><rect x="151" y="88" width="53" height="65" rx="8" stroke="#69E9F4" stroke-width="2"/>
    <path d="M112 142C135 129 149 123 166 122" stroke="#69E9F4" stroke-width="2"/><path d="M116 171C143 187 166 190 192 197" stroke="#FFB65A" stroke-width="2"/>
    <circle cx="112" cy="142" r="4" fill="#FF747D" stroke="none"/><circle cx="166" cy="122" r="4" fill="#69E9F4" stroke="none"/><circle cx="192" cy="197" r="4" fill="#FFB65A" stroke="none"/>
  </g>
  <g opacity=".56" stroke-linecap="round">
    <path d="M687 67L760 49L829 90L807 156L851 213L786 256L708 229L660 170L687 67Z" fill="none" stroke="#72FFB0" stroke-width="1.7"/><path d="M760 49L807 156L660 170M829 90L708 229M687 67L851 213M807 156L786 256" fill="none" stroke="#55DCC5" stroke-opacity=".65" stroke-width="1.3"/>
    <g fill="#102A22" stroke="#9AFFC7" stroke-width="1.7"><circle cx="687" cy="67" r="9"/><circle cx="760" cy="49" r="12"/><circle cx="829" cy="90" r="9"/><circle cx="807" cy="156" r="15"/><circle cx="851" cy="213" r="9"/><circle cx="786" cy="256" r="11"/><circle cx="708" cy="229" r="9"/><circle cx="660" cy="170" r="12"/></g>
  </g>
  <g text-anchor="middle" font-family="Segoe UI,Arial,sans-serif">
    <text x="450" y="70" fill="#9CB8FF" font-size="12" font-weight="700" letter-spacing="3.2">SCIENTIFIC AI · AGENT SYSTEMS · GENERATIVE MODELING</text><text x="450" y="126" fill="#FFFFFF" font-size="48" font-weight="750">Qinglong Ge</text><rect x="325" y="145" width="250" height="3" rx="1.5" fill="url(#rule)"/><text x="450" y="181" fill="#D8E1F2" font-size="18">Turning research ideas into reproducible AI systems</text>
  </g>
  <g font-family="Segoe UI,Arial,sans-serif" font-size="12" font-weight="650" text-anchor="middle">
    <rect x="247" y="207" width="126" height="31" rx="15.5" fill="#10192C" stroke="#7DA8FF" stroke-opacity=".62"/><text x="310" y="227" fill="#BFD0FF">DIFFUSION</text><rect x="387" y="207" width="126" height="31" rx="15.5" fill="#101D29" stroke="#69E9F4" stroke-opacity=".58"/><text x="450" y="227" fill="#B7F6FA">KNOWLEDGE GRAPH</text><rect x="527" y="207" width="126" height="31" rx="15.5" fill="#10251D" stroke="#72FFB0" stroke-opacity=".58"/><text x="590" y="227" fill="#BDFFD9">LANGGRAPH</text>
  </g>
  <text x="450" y="275" text-anchor="middle" fill="#8F9DB5" font-family="Segoe UI,Arial,sans-serif" font-size="13">M.S. @ Dalian University of Technology · Open to AI / LLM internships</text>
</svg>
